{"glyphs":{"0":{"ha":483,"x_min":60,"x_max":422,"o":"m 301 121 l 301 0 l 181 0 l 181 121 l 60 121 l 60 243 l 60 972 l 422 972 l 422 121 l 301 121 m 301 729 l 181 729 l 181 243 l 301 243 l 301 729 z "},"1":{"ha":483,"x_min":60,"x_max":422,"o":"m 60 972 l 181 972 l 181 729 l 60 729 l 60 972 m 301 121 l 301 0 l 181 0 l 181 121 l 60 121 l 60 243 l 422 243 l 422 121 l 301 121 z "},"2":{"ha":483,"x_min":60,"x_max":422,"o":"m 60 972 l 301 972 l 301 729 l 60 729 l 60 972 m 301 121 l 301 0 l 181 0 l 181 121 l 60 121 l 60 243 l 422 243 l 422 121 l 301 121 z "},"3":{"ha":483,"x_min":60,"x_max":422,"o":"m 60 972 l 422 972 l 422 729 l 60 729 l 60 972 m 301 121 l 301 0 l 181 0 l 181 121 l 60 121 l 60 243 l 422 243 l 422 121 l 301 121 z "},"4":{"ha":483,"x_min":60,"x_max":422,"o":"m 60 972 l 422 972 l 422 729 l 181 729 l 181 486 l 60 486 l 60 972 m 301 121 l 301 0 l 181 0 l 181 121 l 60 121 l 60 243 l 422 243 l 422 121 l 301 121 z "},"5":{"ha":483,"x_min":60,"x_max":422,"o":"m 60 972 l 422 972 l 422 729 l 301 729 l 301 486 l 60 486 l 60 972 m 301 121 l 301 0 l 181 0 l 181 121 l 60 121 l 60 243 l 422 243 l 422 121 l 301 121 z "},"6":{"ha":483,"x_min":60,"x_max":422,"o":"m 60 972 l 422 972 l 422 486 l 60 486 l 60 972 m 301 121 l 301 0 l 181 0 l 181 121 l 60 121 l 60 243 l 422 243 l 422 121 l 301 121 z "},"7":{"ha":483,"x_min":60,"x_max":422,"o":"m 301 121 l 301 0 l 181 0 l 181 121 l 60 121 l 60 243 l 60 972 l 422 972 l 422 486 l 181 486 l 181 243 l 422 243 l 422 121 l 301 121 z "},"8":{"ha":483,"x_min":60,"x_max":422,"o":"m 301 121 l 301 0 l 181 0 l 181 121 l 60 121 l 60 972 l 422 972 l 422 486 l 301 486 l 301 243 l 422 243 l 422 121 l 301 121 z "},"9":{"ha":483,"x_min":60,"x_max":422,"o":"m 301 121 l 301 0 l 181 0 l 181 121 l 60 121 l 60 972 l 422 972 l 422 121 l 301 121 z "}," ":{"ha":483,"x_min":0,"x_max":0,"o":""},"e":{"ha":483,"x_min":60,"x_max":422,"o":"m 301 243 l 181 243 l 181 0 l 60 0 l 60 972 l 181 972 l 181 486 l 422 486 l 422 0 l 301 0 l 301 243 m 301 972 l 422 972 l 422 729 l 301 729 l 301 972 z "},"f":{"ha":483,"x_min":60,"x_max":422,"o":"m 60 972 l 422 972 l 422 0 l 301 0 l 301 729 l 60 729 l 60 972 z "},"g":{"ha":483,"x_min":60,"x_max":422,"o":"m 60 972 l 181 972 l 181 243 l 422 243 l 422 0 l 60 0 l 60 972 m 301 972 l 422 972 l 422 486 l 301 486 l 301 972 z "},"h":{"ha":483,"x_min":60,"x_max":422,"o":"m 60 486 l 301 486 l 301 729 l 60 729 l 60 972 l 422 972 l 422 0 l 301 0 l 301 243 l 181 243 l 181 0 l 60 0 l 60 486 z "},"i":{"ha":483,"x_min":60,"x_max":422,"o":"m 60 243 l 181 243 l 181 486 l 301 486 l 301 243 l 422 243 l 422 0 l 60 0 l 60 243 m 60 972 l 422 972 l 422 729 l 60 729 l 60 972 z "},"j":{"ha":483,"x_min":60,"x_max":422,"o":"m 422 486 l 301 486 l 301 729 l 181 729 l 181 486 l 60 486 l 60 972 l 422 972 l 422 486 m 422 0 l 60 0 l 60 243 l 422 243 l 422 0 z "},"k":{"ha":363,"x_min":60,"x_max":301,"o":"m 60 243 l 181 243 l 181 486 l 60 486 l 60 972 l 301 972 l 301 0 l 60 0 l 60 243 z "},"l":{"ha":483,"x_min":60,"x_max":422,"o":"m 60 729 l 181 729 l 181 972 l 422 972 l 422 729 l 301 729 l 301 486 l 422 486 l 422 243 l 301 243 l 301 0 l 60 0 l 60 243 l 181 243 l 181 486 l 60 486 l 60 729 z "},"m":{"ha":483,"x_min":60,"x_max":422,"o":"m 60 243 l 181 243 l 181 486 l 301 486 l 301 243 l 422 243 l 422 0 l 60 0 l 60 243 m 301 972 l 422 972 l 422 486 l 301 486 l 301 972 m 60 972 l 181 972 l 181 486 l 60 486 l 60 972 z "},"n":{"ha":483,"x_min":60,"x_max":422,"o":"m 60 486 l 181 486 l 181 972 l 301 972 l 301 729 l 422 729 l 422 0 l 301 0 l 301 243 l 181 243 l 181 0 l 60 0 l 60 486 z "},"o":{"ha":483,"x_min":60,"x_max":422,"o":"m 181 486 l 60 486 l 60 972 l 181 972 l 181 729 l 301 729 l 301 486 l 422 486 l 422 0 l 301 0 l 301 243 l 181 243 l 181 486 m 60 243 l 181 243 l 181 0 l 60 0 l 60 243 m 301 972 l 422 972 l 422 729 l 301 729 l 301 972 z "},"p":{"ha":483,"x_min":60,"x_max":422,"o":"m 301 972 l 422 972 l 422 729 l 301 729 l 301 972 m 301 243 l 422 243 l 422 0 l 301 0 l 301 243 m 60 972 l 181 972 l 181 0 l 60 0 l 60 972 z "},"r":{"ha":483,"x_min":60,"x_max":422,"o":"m 60 486 l 181 486 l 181 243 l 301 243 l 301 486 l 422 486 l 422 0 l 60 0 l 60 486 m 60 972 l 422 972 l 422 729 l 60 729 l 60 972 z "},"s":{"ha":483,"x_min":60,"x_max":422,"o":"m 301 486 l 181 486 l 181 0 l 60 0 l 60 972 l 181 972 l 181 729 l 301 729 l 301 972 l 422 972 l 422 243 l 301 243 l 301 486 z "},"t":{"ha":483,"x_min":60,"x_max":422,"o":"m 301 972 l 422 972 l 422 729 l 301 729 l 301 972 m 60 972 l 181 972 l 181 729 l 60 729 l 60 972 m 422 0 l 301 0 l 301 243 l 181 243 l 181 0 l 60 0 l 60 486 l 422 486 l 422 0 z "},"u":{"ha":483,"x_min":60,"x_max":422,"o":"m 60 972 l 422 972 l 422 0 l 301 0 l 301 729 l 60 729 l 60 972 z "},"v":{"ha":483,"x_min":60,"x_max":422,"o":"m 60 243 l 181 243 l 181 729 l 60 729 l 60 972 l 422 972 l 422 0 l 60 0 l 60 243 z "},"w":{"ha":483,"x_min":60,"x_max":422,"o":"m 301 972 l 422 972 l 422 0 l 301 0 l 301 243 l 181 243 l 181 486 l 60 486 l 60 972 l 181 972 l 181 729 l 301 729 l 301 972 m 60 243 l 181 243 l 181 0 l 60 0 l 60 243 z "},"y":{"ha":483,"x_min":60,"x_max":422,"o":"m 301 729 l 181 729 l 181 243 l 301 243 l 301 0 l 60 0 l 60 972 l 422 972 l 422 486 l 301 486 l 301 729 z "},"z":{"ha":483,"x_min":60,"x_max":422,"o":"m 60 972 l 422 972 l 422 729 l 301 729 l 301 243 l 422 243 l 422 0 l 301 0 l 301 243 l 181 243 l 181 0 l 60 0 l 60 486 l 181 486 l 181 729 l 60 729 l 60 972 z "},"c":{"ha":483,"x_min":60,"x_max":422,"o":"m 60 972 l 422 972 l 422 0 l 301 0 l 301 729 l 181 729 l 181 0 l 60 0 l 60 972 z "},"d":{"ha":483,"x_min":60,"x_max":422,"o":"m 60 972 l 422 972 l 422 729 l 301 729 l 301 486 l 422 486 l 422 0 l 60 0 l 60 486 l 181 486 l 181 729 l 60 729 l 60 972 z "},"a":{"ha":483,"x_min":60,"x_max":422,"o":"m 60 972 l 422 972 l 422 0 l 301 0 l 301 243 l 60 243 l 60 486 l 301 486 l 301 729 l 60 729 l 60 972 z "},"A":{"ha":483,"x_min":60,"x_max":422,"o":"m 60 972 l 422 972 l 422 0 l 301 0 l 301 243 l 60 243 l 60 486 l 301 486 l 301 729 l 60 729 l 60 972 z "},"b":{"ha":483,"x_min":60,"x_max":422,"o":"m 60 243 l 301 243 l 301 486 l 181 486 l 181 729 l 60 729 l 60 972 l 422 972 l 422 0 l 60 0 l 60 243 z "},"B":{"ha":483,"x_min":60,"x_max":422,"o":"m 60 243 l 301 243 l 301 486 l 181 486 l 181 729 l 60 729 l 60 972 l 422 972 l 422 0 l 60 0 l 60 243 z "},"C":{"ha":483,"x_min":60,"x_max":422,"o":"m 60 972 l 422 972 l 422 0 l 301 0 l 301 729 l 181 729 l 181 0 l 60 0 l 60 972 z "},"D":{"ha":483,"x_min":60,"x_max":422,"o":"m 60 972 l 422 972 l 422 729 l 301 729 l 301 486 l 422 486 l 422 0 l 60 0 l 60 486 l 181 486 l 181 729 l 60 729 l 60 972 z "},"E":{"ha":483,"x_min":60,"x_max":422,"o":"m 301 243 l 181 243 l 181 0 l 60 0 l 60 972 l 181 972 l 181 486 l 422 486 l 422 0 l 301 0 l 301 243 m 301 972 l 422 972 l 422 729 l 301 729 l 301 972 z "},"F":{"ha":483,"x_min":60,"x_max":422,"o":"m 60 972 l 422 972 l 422 0 l 301 0 l 301 729 l 60 729 l 60 972 z "},"G":{"ha":483,"x_min":60,"x_max":422,"o":"m 60 972 l 181 972 l 181 243 l 422 243 l 422 0 l 60 0 l 60 972 m 301 972 l 422 972 l 422 486 l 301 486 l 301 972 z "},"H":{"ha":483,"x_min":60,"x_max":422,"o":"m 60 486 l 301 486 l 301 729 l 60 729 l 60 972 l 422 972 l 422 0 l 301 0 l 301 243 l 181 243 l 181 0 l 60 0 l 60 486 z "},"I":{"ha":483,"x_min":60,"x_max":422,"o":"m 60 243 l 181 243 l 181 486 l 301 486 l 301 243 l 422 243 l 422 0 l 60 0 l 60 243 m 60 972 l 422 972 l 422 729 l 60 729 l 60 972 z "},"J":{"ha":483,"x_min":60,"x_max":422,"o":"m 422 486 l 301 486 l 301 729 l 181 729 l 181 486 l 60 486 l 60 972 l 422 972 l 422 486 m 422 0 l 60 0 l 60 243 l 422 243 l 422 0 z "},"K":{"ha":363,"x_min":60,"x_max":301,"o":"m 60 243 l 181 243 l 181 486 l 60 486 l 60 972 l 301 972 l 301 0 l 60 0 l 60 243 z "},"L":{"ha":483,"x_min":60,"x_max":422,"o":"m 60 729 l 181 729 l 181 972 l 422 972 l 422 729 l 301 729 l 301 486 l 422 486 l 422 243 l 301 243 l 301 0 l 60 0 l 60 243 l 181 243 l 181 486 l 60 486 l 60 729 z "},"M":{"ha":483,"x_min":60,"x_max":422,"o":"m 60 243 l 181 243 l 181 486 l 301 486 l 301 243 l 422 243 l 422 0 l 60 0 l 60 243 m 301 972 l 422 972 l 422 486 l 301 486 l 301 972 m 60 972 l 181 972 l 181 486 l 60 486 l 60 972 z "},"N":{"ha":483,"x_min":60,"x_max":422,"o":"m 60 486 l 181 486 l 181 972 l 301 972 l 301 729 l 422 729 l 422 0 l 301 0 l 301 243 l 181 243 l 181 0 l 60 0 l 60 486 z "},"O":{"ha":483,"x_min":60,"x_max":422,"o":"m 181 486 l 60 486 l 60 972 l 181 972 l 181 729 l 301 729 l 301 486 l 422 486 l 422 0 l 301 0 l 301 243 l 181 243 l 181 486 m 60 243 l 181 243 l 181 0 l 60 0 l 60 243 m 301 972 l 422 972 l 422 729 l 301 729 l 301 972 z "},"P":{"ha":483,"x_min":60,"x_max":422,"o":"m 301 972 l 422 972 l 422 729 l 301 729 l 301 972 m 301 243 l 422 243 l 422 0 l 301 0 l 301 243 m 60 972 l 181 972 l 181 0 l 60 0 l 60 972 z "},"R":{"ha":483,"x_min":60,"x_max":422,"o":"m 60 486 l 181 486 l 181 243 l 301 243 l 301 486 l 422 486 l 422 0 l 60 0 l 60 486 m 60 972 l 422 972 l 422 729 l 60 729 l 60 972 z "},"S":{"ha":483,"x_min":60,"x_max":422,"o":"m 301 486 l 181 486 l 181 0 l 60 0 l 60 972 l 181 972 l 181 729 l 301 729 l 301 972 l 422 972 l 422 243 l 301 243 l 301 486 z "},"T":{"ha":483,"x_min":60,"x_max":422,"o":"m 301 972 l 422 972 l 422 729 l 301 729 l 301 972 m 60 972 l 181 972 l 181 729 l 60 729 l 60 972 m 422 0 l 301 0 l 301 243 l 181 243 l 181 0 l 60 0 l 60 486 l 422 486 l 422 0 z "},"U":{"ha":483,"x_min":60,"x_max":422,"o":"m 60 972 l 422 972 l 422 0 l 301 0 l 301 729 l 60 729 l 60 972 z "},"V":{"ha":483,"x_min":60,"x_max":422,"o":"m 60 243 l 181 243 l 181 729 l 60 729 l 60 972 l 422 972 l 422 0 l 60 0 l 60 243 z "},"W":{"ha":483,"x_min":60,"x_max":422,"o":"m 301 972 l 422 972 l 422 0 l 301 0 l 301 243 l 181 243 l 181 486 l 60 486 l 60 972 l 181 972 l 181 729 l 301 729 l 301 972 m 60 243 l 181 243 l 181 0 l 60 0 l 60 243 z "},"Y":{"ha":483,"x_min":60,"x_max":422,"o":"m 301 729 l 181 729 l 181 243 l 301 243 l 301 0 l 60 0 l 60 972 l 422 972 l 422 486 l 301 486 l 301 729 z "},"Z":{"ha":483,"x_min":60,"x_max":422,"o":"m 60 972 l 422 972 l 422 729 l 301 729 l 301 243 l 422 243 l 422 0 l 301 0 l 301 243 l 181 243 l 181 0 l 60 0 l 60 486 l 181 486 l 181 729 l 60 729 l 60 972 z "},"!":{"ha":483,"x_min":46,"x_max":315,"o":"m 60 243 l 301 243 l 301 0 l 60 0 l 60 243 m 46 972 l 315 972 l 301 389 l 60 389 l 46 972 z "},"\"":{"ha":483,"x_min":60,"x_max":422,"o":"m 60 972 l 181 972 l 181 729 l 60 729 l 60 972 m 301 972 l 422 972 l 422 729 l 301 729 l 301 972 z "},"#":{"ha":483,"x_min":0,"x_max":483,"o":"m 194 972 l 194 0 l 74 0 l 74 972 l 194 972 m 408 972 l 408 0 l 288 0 l 288 972 l 408 972 m 483 608 l 0 608 l 0 729 l 483 729 l 483 608 m 483 243 l 0 243 l 0 364 l 483 364 l 483 243 z "},"'":{"ha":483,"x_min":181,"x_max":301,"o":"m 181 972 l 301 972 l 301 729 l 181 729 l 181 972 z "},"(":{"ha":483,"x_min":60,"x_max":422,"o":"m 181 486 q 184 390 181 435 q 203 313 188 344 q 248 262 218 281 q 329 243 278 243 l 422 243 l 422 0 l 301 0 q 206 19 250 0 q 128 69 161 38 q 78 147 96 101 q 60 243 60 192 l 60 729 q 78 826 60 782 q 128 903 96 871 q 206 953 161 935 q 301 972 250 972 l 422 972 l 422 729 l 329 729 q 248 710 278 729 q 203 660 218 692 q 184 583 188 628 q 181 486 181 539 z "},"[":{"ha":483,"x_min":60,"x_max":422,"o":"m 181 243 l 422 243 l 422 0 l 60 0 l 60 972 l 422 972 l 422 729 l 181 729 l 181 243 z "},"\\":{"ha":483,"x_min":60,"x_max":422,"o":"m 181 972 l 422 0 l 301 0 l 60 972 l 181 972 z "},"]":{"ha":483,"x_min":60,"x_max":422,"o":"m 301 729 l 60 729 l 60 972 l 422 972 l 422 0 l 60 0 l 60 243 l 301 243 l 301 729 z "},"^":{"ha":483,"x_min":60,"x_max":422,"o":"m 240 757 l 181 486 l 60 486 l 181 972 l 301 972 l 422 486 l 301 486 l 240 757 z "},"_":{"ha":483,"x_min":60,"x_max":422,"o":"m 422 -243 l 60 -243 l 60 0 l 422 0 l 422 -243 z "},"{":{"ha":483,"x_min":60,"x_max":422,"o":"m 60 608 l 143 608 l 143 729 q 161 826 143 782 q 212 903 179 871 q 289 953 244 935 q 385 972 333 972 l 422 972 l 422 729 l 413 729 q 331 710 361 729 q 286 660 301 692 q 267 583 271 628 q 264 486 264 539 q 267 390 264 435 q 286 313 271 344 q 331 262 301 281 q 413 243 361 243 l 422 243 l 422 0 l 385 0 q 289 19 333 0 q 212 69 244 38 q 161 147 179 101 q 143 243 143 192 l 143 365 l 60 365 l 60 608 z "},"|":{"ha":483,"x_min":181,"x_max":301,"o":"m 301 972 l 301 0 l 181 0 l 181 972 l 301 972 z "},"~":{"ha":483,"x_min":18,"x_max":464,"o":"m 18 542 l 88 917 l 208 917 l 301 715 l 343 861 l 464 861 l 394 486 l 274 486 l 181 688 l 139 542 l 18 542 z "},")":{"ha":483,"x_min":60,"x_max":422,"o":"m 301 486 q 298 583 301 539 q 279 660 294 628 q 235 710 264 692 q 153 729 206 729 l 60 729 l 60 972 l 181 972 q 277 953 233 972 q 353 903 321 935 q 404 826 386 871 q 422 729 422 782 l 422 243 q 404 147 422 192 q 353 69 386 101 q 277 19 321 38 q 181 0 233 0 l 60 0 l 60 243 l 153 243 q 235 262 206 243 q 279 313 264 281 q 298 390 294 344 q 301 486 301 435 z "},",":{"ha":483,"x_min":60,"x_max":301,"o":"m 181 0 l 60 0 l 60 243 l 301 243 l 301 -243 l 181 -243 l 181 0 z "},".":{"ha":483,"x_min":60,"x_max":301,"o":"m 60 243 l 301 243 l 301 0 l 60 0 l 60 243 z "},"/":{"ha":483,"x_min":60,"x_max":422,"o":"m 422 972 l 181 0 l 60 0 l 301 972 l 422 972 z "},":":{"ha":483,"x_min":60,"x_max":301,"o":"m 60 243 l 301 243 l 301 0 l 60 0 l 60 243 m 60 972 l 301 972 l 301 729 l 60 729 l 60 972 z "},"=":{"ha":483,"x_min":60,"x_max":422,"o":"m 422 486 l 60 486 l 60 729 l 422 729 l 422 486 m 422 0 l 60 0 l 60 243 l 422 243 l 422 0 z "},"-":{"ha":483,"x_min":60,"x_max":422,"o":"m 422 243 l 60 243 l 60 486 l 422 486 l 422 243 z "},";":{"ha":483,"x_min":60,"x_max":301,"o":"m 60 972 l 301 972 l 301 729 l 60 729 l 60 972 m 181 0 l 60 0 l 60 243 l 301 243 l 301 -243 l 181 -243 l 181 0 z "},"%":{"ha":483,"x_min":60,"x_max":422,"o":"m 422 972 l 181 0 l 60 0 l 301 972 l 422 972 m 60 972 l 181 972 l 181 729 l 60 729 l 60 972 m 301 243 l 422 243 l 422 0 l 301 0 l 301 243 z "},"$":{"ha":483,"x_min":44,"x_max":422,"o":"m 181 -92 q 88 18 117 -64 q 60 215 60 100 l 181 215 q 192 132 181 167 q 240 97 204 97 q 289 132 276 97 q 301 215 301 167 q 287 289 301 264 q 226 319 272 314 q 88 385 131 331 q 44 528 44 440 q 76 734 44 650 q 181 840 108 818 l 181 972 l 301 972 l 301 828 q 382 715 357 794 q 407 528 407 636 l 286 528 q 274 611 286 576 q 226 646 263 646 q 178 611 190 646 q 165 528 165 576 q 180 454 165 479 q 240 424 194 429 q 379 358 336 413 q 422 215 422 303 q 393 18 422 100 q 301 -92 364 -64 l 301 -243 l 181 -243 l 181 -92 z "},"&":{"ha":483,"x_min":61,"x_max":424,"o":"m 181 972 l 301 972 l 301 835 q 394 713 365 804 q 424 497 424 622 l 303 497 q 291 581 303 546 q 243 615 279 615 q 194 581 207 615 q 182 497 182 546 q 185 476 182 489 q 194 451 188 463 q 213 432 201 440 q 240 424 224 424 l 303 424 l 303 319 l 243 319 q 213 312 225 319 q 194 292 201 304 q 185 268 188 281 q 182 247 182 256 q 194 164 182 199 q 243 129 207 129 q 291 164 279 129 q 303 247 303 199 l 424 247 q 417 130 424 185 q 394 31 410 75 q 356 -45 379 -14 q 301 -92 333 -76 l 301 -243 l 181 -243 l 181 -94 q 90 -1 118 -72 q 61 192 61 69 q 65 242 61 215 q 75 295 68 269 q 92 341 82 321 q 117 371 103 361 q 92 401 103 381 q 75 448 82 422 q 65 501 68 474 q 61 553 61 529 q 90 745 61 675 q 181 838 118 815 l 181 972 z "},"+":{"ha":483,"x_min":60,"x_max":422,"o":"m 181 243 l 60 243 l 60 486 l 181 486 l 181 729 l 301 729 l 301 486 l 422 486 l 422 243 l 301 243 l 301 0 l 181 0 l 181 243 z "},"?":{"ha":483,"x_min":60,"x_max":422,"o":"m 181 326 q 190 400 181 372 q 212 447 199 428 q 241 479 225 465 q 270 510 257 493 q 292 550 283 526 q 301 611 301 574 q 289 694 301 660 q 240 729 276 729 q 192 694 204 729 q 181 611 181 660 l 60 611 q 70 751 60 686 q 102 866 81 817 q 158 944 124 915 q 240 972 193 972 q 323 944 289 972 q 379 866 357 915 q 412 751 401 817 q 422 611 422 686 q 403 506 422 543 q 362 443 385 469 q 320 392 339 417 q 301 326 301 368 l 181 326 m 181 243 l 301 243 l 301 0 l 181 0 l 181 243 z "},"<":{"ha":483,"x_min":60,"x_max":422,"o":"m 60 358 l 288 729 l 422 729 l 194 358 l 422 0 l 288 0 l 60 358 z "},">":{"ha":483,"x_min":61,"x_max":424,"o":"m 196 0 l 61 0 l 289 358 l 61 729 l 196 729 l 424 358 l 196 0 z "},"@":{"ha":483,"x_min":60,"x_max":422,"o":"m 422 122 l 271 122 l 271 364 l 150 364 l 150 486 l 271 486 l 271 608 l 150 608 l 150 729 l 332 729 l 332 243 l 361 243 l 361 851 l 121 851 l 121 0 l 422 0 l 422 -121 l 60 -121 l 60 972 l 422 972 l 422 122 z "},"`":{"ha":483,"x_min":60,"x_max":422,"o":"m 60 972 l 301 972 l 422 486 l 301 486 l 60 972 z "},"*":{"ha":483,"x_min":28,"x_max":454,"o":"m 393 857 l 454 753 l 360 697 l 454 642 l 393 538 l 301 592 l 301 486 l 181 486 l 181 592 l 89 538 l 28 642 l 122 697 l 28 753 l 89 857 l 181 803 l 181 910 l 301 910 l 301 803 l 393 857 z "}," ":{"ha":483,"x_min":0,"x_max":0,"o":""},"£":{"ha":483,"x_min":18,"x_max":422,"o":"m 83 243 q 80 322 83 285 q 72 401 76 360 q 63 493 67 443 q 60 611 60 543 q 70 751 60 686 q 103 866 81 817 q 160 944 125 915 q 242 972 194 972 q 324 944 290 972 q 380 866 358 915 q 412 751 401 817 q 422 611 422 686 l 301 611 q 290 694 301 660 q 242 729 278 729 q 193 694 206 729 q 181 611 181 660 q 184 515 181 554 q 192 438 188 475 q 201 356 197 400 q 204 243 204 311 l 422 243 l 422 0 l 60 0 l 60 243 l 83 243 m 18 486 l 301 486 l 301 354 l 18 354 l 18 486 z "},"“":{"ha":483,"x_min":60,"x_max":422,"o":"m 60 972 l 181 972 l 181 729 l 60 729 l 60 972 m 301 972 l 422 972 l 422 729 l 301 729 l 301 972 z "},"”":{"ha":483,"x_min":60,"x_max":422,"o":"m 60 972 l 181 972 l 181 729 l 60 729 l 60 972 m 301 972 l 422 972 l 422 729 l 301 729 l 301 972 z "},"‘":{"ha":483,"x_min":181,"x_max":301,"o":"m 181 972 l 301 972 l 301 729 l 181 729 l 181 972 z "},"’":{"ha":483,"x_min":181,"x_max":301,"o":"m 181 972 l 301 972 l 301 729 l 181 729 l 181 972 z "},"€":{"ha":483,"x_min":4,"x_max":422,"o":"m 4 458 l 60 458 l 60 521 l 18 521 l 18 583 l 60 583 l 60 611 q 70 751 60 686 q 103 866 81 817 q 160 944 125 915 q 242 972 194 972 q 324 944 290 972 q 380 866 358 915 q 412 751 401 817 q 422 611 422 686 l 301 611 q 290 694 301 660 q 242 729 278 729 q 193 694 206 729 q 181 611 181 660 l 181 583 l 274 583 l 274 521 l 181 521 l 181 458 l 260 458 l 260 396 l 181 396 l 181 361 q 193 278 181 313 q 242 243 206 243 q 290 278 278 243 q 301 361 301 313 l 422 361 q 412 221 422 286 q 380 106 401 156 q 324 28 358 57 q 242 0 290 0 q 160 28 194 0 q 103 106 125 57 q 70 221 81 156 q 60 361 60 286 l 60 396 l 4 396 l 4 458 z "},"\u0000":{"ha":483,"x_min":0,"x_max":0,"o":""},"\r":{"ha":483,"x_min":0,"x_max":0,"o":""},"}":{"ha":483,"x_min":61,"x_max":424,"o":"m 424 365 l 340 365 l 340 243 q 322 147 340 192 q 272 69 304 101 q 195 19 239 38 q 99 0 151 0 l 61 0 l 61 243 l 71 243 q 153 262 124 243 q 197 313 182 281 q 216 390 213 344 q 219 486 219 435 q 216 583 219 539 q 197 660 213 628 q 153 710 182 692 q 71 729 124 729 l 61 729 l 61 972 l 99 972 q 195 953 151 972 q 272 903 239 935 q 322 826 304 871 q 340 729 340 782 l 340 608 l 424 608 l 424 365 z "},"¢":{"ha":483,"x_min":4,"x_max":422,"o":"m 60 454 l 4 454 l 4 517 l 60 517 l 60 611 q 70 751 60 686 q 103 866 81 817 q 160 944 125 915 q 242 972 194 972 q 324 944 290 972 q 380 866 358 915 q 412 751 401 817 q 422 611 422 686 l 301 611 q 290 694 301 660 q 242 729 278 729 q 193 694 206 729 q 181 611 181 660 l 181 517 l 274 517 l 274 454 l 181 454 l 181 361 q 193 278 181 313 q 242 243 206 243 q 290 278 278 243 q 301 361 301 313 l 422 361 q 412 221 422 286 q 380 106 401 156 q 324 28 358 57 q 242 0 290 0 q 160 28 194 0 q 103 106 125 57 q 70 221 81 156 q 60 361 60 286 l 60 454 z "},"x":{"ha":483,"x_min":60,"x_max":422,"o":"m 60 972 l 181 972 l 181 486 l 301 486 l 301 972 l 422 972 l 422 0 l 301 0 l 301 243 l 181 243 l 181 0 l 60 0 l 60 972 z "},"†":{"ha":483,"x_min":60,"x_max":422,"o":"m 301 0 l 181 0 l 181 486 l 60 486 l 60 729 l 181 729 l 181 972 l 301 972 l 301 729 l 422 729 l 422 486 l 301 486 l 301 0 z "},"‡":{"ha":483,"x_min":60,"x_max":422,"o":"m 422 729 l 301 729 l 301 486 l 422 486 l 422 243 l 301 243 l 301 0 l 181 0 l 181 243 l 60 243 l 60 486 l 181 486 l 181 729 l 60 729 l 60 972 l 422 972 l 422 729 z "},"X":{"ha":483,"x_min":60,"x_max":422,"o":"m 60 972 l 181 972 l 181 486 l 301 486 l 301 972 l 422 972 l 422 0 l 301 0 l 301 243 l 181 243 l 181 0 l 60 0 l 60 972 z "},"Q":{"ha":483,"x_min":60,"x_max":422,"o":"m 301 243 l 181 243 l 181 486 l 60 486 l 60 729 l 181 729 l 181 972 l 301 972 l 301 729 l 422 729 l 422 486 l 301 486 l 301 243 l 422 243 l 422 0 l 301 0 l 301 243 m 60 243 l 181 243 l 181 0 l 60 0 l 60 243 z "},"q":{"ha":483,"x_min":60,"x_max":422,"o":"m 301 243 l 181 243 l 181 486 l 60 486 l 60 729 l 181 729 l 181 972 l 301 972 l 301 729 l 422 729 l 422 486 l 301 486 l 301 243 l 422 243 l 422 0 l 301 0 l 301 243 m 60 243 l 181 243 l 181 0 l 60 0 l 60 243 z "}}}
